<svg width="87" height="86" viewBox="0 0 87 86" fill="none" xmlns="http://www.w3.org/2000/svg">
<path fill-rule="evenodd" clip-rule="evenodd" d="M18.9252 60.9687L68.8326 25.2503L68.9074 25.3551C68.8827 25.3201 68.8575 25.2852 68.8326 25.2503C58.876 11.3049 39.6327 7.99587 25.8511 17.8593C12.0695 27.7226 8.96873 47.0233 18.9252 60.9687Z" fill="#C4C4C4"/>
<path fill-rule="evenodd" clip-rule="evenodd" d="M68.6058 24.9324L18.8008 60.5775L18.7771 60.5443C18.785 60.5554 18.7929 60.5665 18.8008 60.5775C28.6321 74.3474 47.7511 77.5306 61.5044 67.6875C75.2576 57.8443 78.437 38.7023 68.6058 24.9324Z" fill="#F8F8F8"/>
<path d="M26.3985 58.1506C26.3985 60.5119 24.4866 62.4261 22.1281 62.4261C19.7697 62.4261 17.8578 60.5119 17.8578 58.1506C17.8578 55.7893 19.7697 53.8751 22.1281 53.8751C24.4866 53.8751 26.3985 55.7893 26.3985 58.1506Z" fill="#C4C4C4"/>
<path d="M69.3256 27.28C69.3256 29.6412 67.4137 31.5555 65.0553 31.5555C62.6968 31.5555 60.7849 29.6412 60.7849 27.28C60.7849 24.9187 62.6968 23.0045 65.0553 23.0045C67.4137 23.0045 69.3256 24.9187 69.3256 27.28Z" fill="#C4C4C4"/>
<path fill-rule="evenodd" clip-rule="evenodd" d="M25.1859 56.0077C32.4963 66.2468 46.713 68.6138 56.9398 61.2946C67.1666 53.9753 69.5308 39.7415 62.2203 29.5024C54.9099 19.2633 40.6932 16.8963 30.4664 24.2155C20.2396 31.5347 17.8754 45.7686 25.1859 56.0077Z" fill="white"/>
</svg>
